<?xml version="1.0" encoding="UTF-8"?>
<svg id="Layer_1" data-name="Layer 1" xmlns="http://www.w3.org/2000/svg" viewBox="0 0 702.42 207.43">
  <defs>
    <style>
      .cls-1 {
        fill: #aa5326;
      }

      .cls-2 {
        fill: #f68d3e;
      }

      .cls-3 {
        fill: #f4853e;
      }

      .cls-4 {
        fill: #f37638;
      }

      .cls-5 {
        fill: #f37538;
      }

      .cls-6 {
        fill: #a15525;
      }

      .cls-7 {
        fill: #f5883d;
      }

      .cls-8 {
        fill: #fff;
      }

      .cls-9 {
        fill: #f6903e;
      }

      .cls-10 {
        letter-spacing: -.05em;
      }

      .cls-11 {
        font-size: 44.22px;
      }

      .cls-11, .cls-12 {
        fill: #f7941d;
        font-family: TwCenMT-CondensedExtraBold, 'Tw Cen MT Condensed Extra Bold';
        font-weight: 700;
      }

      .cls-13 {
        fill: #dc8f2a;
      }

      .cls-14 {
        fill: #de5826;
      }

      .cls-15 {
        fill: #f79741;
      }

      .cls-16 {
        fill: #d77728;
      }

      .cls-17 {
        fill: #9f5525;
      }

      .cls-18 {
        fill: #a15a27;
      }

      .cls-19 {
        fill: #fab655;
      }

      .cls-20 {
        fill: #f9ab4c;
      }

      .cls-21 {
        fill: #f9ab4d;
      }

      .cls-22 {
        fill: #f8a346;
      }

      .cls-23 {
        letter-spacing: -.03em;
      }

      .cls-24 {
        fill: #fbb654;
      }

      .cls-25 {
        fill: #da8f28;
      }

      .cls-26 {
        letter-spacing: 0em;
      }

      .cls-27 {
        fill: #ed8d2c;
      }

      .cls-28 {
        fill: #f27638;
      }

      .cls-29 {
        fill: #feffff;
      }

      .cls-30 {
        fill: #a05525;
      }

      .cls-31 {
        fill: #f9a549;
      }

      .cls-12 {
        font-size: 41.28px;
      }

      .cls-32 {
        fill: #da7a29;
      }

      .cls-33 {
        fill: #fab654;
      }
    </style>
  </defs>
  <path class="cls-21" d="M48.89,20.71l2.01-.68c7.2-7.72,5.66,6.16,1.03,5.36-.45-1.15-1.22-.6-2.31,1.66-3.47,1.46-5.39,2.84-5.23,6.14C3.53,69.17-.1,130.16,37.4,170.01c6.19,5.72,12.87,10.86,19.95,15.39l.53,1.09c3.38,2.48,6.41,6.32,1.95,9.63l-1.45-.14c-11.23-5.78-24.06-15.6-31.98-25.47C1.89,142.53-3.93,101.84,9.55,67.48c3.72-9.49,8.31-16.58,14.07-24.85,3.9-5.6,18.23-20.14,23.98-22.49.39-.16.91.26,1.29.57Z"/>
  <path class="cls-31" d="M89.86,76.13c4.01-.27,7.61.48,11.06,1.89-.04,2.88.03,5.82.21,8.83.47,3.01-2.15,7.1-3.96,3.08l-1.31-.31-.16.69c-1.49.27-2.93.53-4.34.81.07.9-.46,1.42-1.59,1.56-.33,8.29-.57,17.09-.77,25.59-.17,2.74.46,5,1.36,7.3,1.02.3,2.05.13,3.08-.09.3.26-1.34,7.25-1.87,7.6-4.46-.59-8.95-.72-13.47-.4-.83-.19-1.8-.54-1.22-1.36-.22-.04-.42-.1-.49-.23-.32-.53-.19-11.01-.12-12.42,0-.12.27-.23.62-.33-.29.24-.52.42-.54.39-4.49-4.52-9.41-9.71-12.95-14.63,2.01-3.79,9.6-8.85,12.49-12.98.62-4.37.78-8.87.5-13.48.21-.38.39-.71.79-.94,1.65-.94,10.26-.7,12.7-.56Z"/>
  <path class="cls-5" d="M202.28,101.1c1.82,0,4.75.15,5.39,2.35.82,2.81-.04,12.45-.47,15.8-4.74,37.03-28.94,65.6-62.38,80.22-1.67.61-1.64-1.02-1.52-2.41.64-1.8.64-3.49.02-5.08l1.63-1.83c31.32-14.76,54.32-48.62,53.73-83.2.11-2.66.47-5.44,3.59-5.86Z"/>
  <path class="cls-28" d="M136.99,47.62c52.02,26,43.9,101.21-11.26,118.56-1.29.4-3.93,1.21-5.12,1.48-.28,1.03-3.26,1.93-3.58.49-1.2.21-2.38.34-3.58.49-.49,1.6-1.5,1.63-2.56.49-.34.03-.69-.03-1.02,0-.31,1.35-.9,1.23-1.54,0-.54,1.62-2.19,1.17-3.07,0-.31.93-.77.94-1.02,0-1.36-1.64-2.07-3.77-2.01-5.88,6.32-.75,12.62-2.14,18.9-3.01,6.77-1.02,13.23-3.2,18.61-7.44l1.36.03c3.01-2.93,6.02-5.93,9.04-8.99l1.71-.39.64-2.27c22.13-25.6,15.9-63.46-10.37-83.69-4.74-4.2-8.84-6.24-14.85-8.4-.87-.54-.98-1.73-.31-3.55-1.59-.63-2.34-1.42-2.25-2.38.49-.35,1.09-.59,1.68-.37,3.66,1.34,7.25,2.86,10.6,4.82Z"/>
  <path class="cls-30" d="M107.85,4.23l-.96.64c-17.25-3-36.52,4.33-51.7,12.89-1.96-.08-3.06,1.01-4.37,2.32l-1.93.63c-4.52,1.27-17.47,14.2-20.97,18.24-32.55,37.62-32.09,93.46-1.51,131.57C3.04,145.34-5.54,108.72,3.57,75.53,14.37,36.17,48.86,5.55,89.68.8c5.8-.68,14.96-2.49,18.17,3.43Z"/>
  <path class="cls-7" d="M128.84,73.14c1.33.07,1.53.71,1.5,1.92.27,18.88.26,37.8-.03,56.75.91,3.18.42,5.1-1.47,5.74-4.13.18-8.35-.03-12.49,0l-.76-1.14c.14-4.79.39-9.24.76-13.34-.43-.02-.97-.2-.94-.52.5-6.9.54-14.08.33-21.21-.13-1.38.29-2.63,1.12-3.73,1.59-.2,3.25-.37,5-.5-.39-.75.11-1.25,1.5-1.5v-.69c2.83-1.1,2.42-2.84,1.5-5.31-3.46-.67-7.02-.42-10.49,0-.09.45-.26.43-.5,0-3.84-.82-1.49-1.76.88-2.42-.47-3.92-.26-7.89.65-11.9-1.79.15-2.97-.24-3.53-1.16-.45-.09-.45-.42,0-1,5.65.13,11.34-.18,16.99,0Z"/>
  <path class="cls-30" d="M202.28,101.1c-3.92,2.77-2.14,8.04-2.5,12.23-2.93,33.62-25.49,65.22-56.45,78.65-.28.4-.58.78-.92,1.12-2.59,2.5-14.12,4.99-18.3,5.77-15.95,2.97-32.65,1.81-48.07-3.19-6.37-2.07-13.38-4.51-18.14-9.19-7.99-4.67-14.17-9.77-20.49-16.48l12.33,9.4c31.56,21.52,70.36,23.26,103.04,2.8,27.01-16.91,42.67-46.19,42.73-78.14,1.4-2.55,4.07-2.97,6.78-2.96Z"/>
  <path class="cls-2" d="M143.32,191.98c3.53.68-.46,5.54,1.5,7.49-27.37,11.96-59.97,10.14-86.44-3.5,1.42-1.02,2.86-2.39,2.95-4.28.01-.26-.82-.22-.98-.57-.33-.74-.07-1.61-.51-2.32-.7-1.12-2.09-1-1.96-2.33,25.49,14.89,58.16,17.33,85.44,5.49Z"/>
  <path class="cls-30" d="M137.83,47.67c-3.63-1.88-8.1-3.32-11.99-4.49l-2.49.33c-14.77-4.26-30.22-2.79-43.98,4.05l-2.5.12-1.33,1.84c-20.4,11-33.97,33.53-32.89,56.63l-.75.95c-4.64-1.67-4.27-6.56-4.02-10.76.59-9.67,5.13-21.51,10.31-29.65,18.8-29.57,60.58-39.35,89.64-19.02Z"/>
  <path class="cls-15" d="M107.85,4.23c.2.37.73.55.9,1.33,1.53,7.01-7.18,5.28-11.14,5.67-18.67,1.86-39.06,9.51-53.22,21.97-2.13.56.13-4.28.27-4.47.76-1,3.61-1.6,4.57-2.67.84-.94,1.03-3.22,1.16-3.34.94-.9,1.55,1.98,2.24,1.99,1,.01,3.52-5.86,1.48-6.48-1.7-.51-2.01,2-3.08,2.41-.71.27-1.64-.06-2.15.08,13.05-9.43,31.53-16.47,47.72-17.47,3.3-.2,8.47-.57,11.24.99Z"/>
  <path class="cls-22" d="M105.85,97.61c.37-1.73,2.74-1.2,3,.45l.05,25.42c.9,1.46,2.61,1.47,3.87.47l1.07.12c-.48-1.54,1.78-2.47,2.5-1,.04.05.69-.13.88.09.48.54-.34,2.27-.38,3.16-.17,3.73.47,7.61-.5,11.23-6.99.05-14-.03-20.98,0,3.03-13.25,6.28-26.51,9.76-39.79l.73-.16Z"/>
  <path class="cls-20" d="M76.87,47.67c3.36-1.15,2.55,4.51-.54,4.97l-.96,1.03c-2.85,2.56-6.38,4.43-9.23,7-10.36,9.37-17.08,22.45-19.19,36.25-.33,2.16-.09,9.97-1.89,10.59-1.41.48-2.08-.02-3.17-.42-.5-1.41-.57-2.75-.5-4.24,1.16-23.93,14.37-44.41,35.47-55.19Z"/>
  <path class="cls-3" d="M134.33,89.62c.24,1.22.74,2.57,1.51,4.04.88,5.88.64,19.19-.44,25-.15.81-.4,1.35-1.07,1.92-.03,1.11.03,2.41,0,3.5-.46,1.98-.42,4.01,0,5.99,0,.17,0,.33,0,.5-.15,2-.31,4-.5,5.99-1.22,1.43-3.35.93-5,1,1.56-2.14.49-3.69.48-5.72-.13-18.68.7-37.32.04-55.97-.03-.95.05-1.89-.52-2.72,1.66.05,4.82-.62,5.4,1.35.38,1.31.37,13.42.1,15.13Z"/>
  <path class="cls-9" d="M125.84,43.18c4.28,2.1,3.32,1.74,2.5,5.99-17.81-6.63-36.46-4.84-52.96,4.49.22-.2.23-1.03.64-1.35,1.42-1.11,1.78.51,1.87-2.9.03-.94.44-2.03-1.01-1.74,16.22-8.28,31.4-9.78,48.96-4.49Z"/>
  <path class="cls-6" d="M152.32,144.55c-1.11.86-2.75,1.28-3-.5,22.74-25.85,18.23-63.69-6.5-86.39,13.3,8.81,22.37,25.35,23.98,41.2,1.74,17.2-3.24,32.78-14.48,45.68Z"/>
  <path class="cls-4" d="M134.33,120.58c.19-7.8,1.56-19.2.53-26.74-.22-1.6-1.53-2.12-1.47-2.9.04-.6.93-1.17.95-1.31l15.01,15.73c-3.09,3.53-6.27,7.11-9.5,10.5-1.62,1.7-3.4,3.73-5.51,4.73Z"/>
  <path class="cls-27" d="M106.85,75.14l.86.73c-.14,2.2-1.46,9.92-2.3,11.69s-.97,1.78-3.06,2.06c.71,1.3-.12,2-1.5,1.5l-.29,1.24c-4.28,3.29,1.55,4.46,4.67,4.2l.62,1.06-10.49,39.95c-1.26-.43-.14-2.25,0-3l-.38-1.54c2.56-11.54,5.45-23.04,8.67-34.51l-1.29.11c-2.41,6.84-3.87,13.74-4.38,20.7l-1.13.77c-.79-.7-1.26-1.56-1.15-2.61l.47-18.56c-.17-3.22-.28-6.32-.32-9.3.2-.04.88-.99,1.25-.96.68.05,1.34,2.3,2.24,2.46,1.39-3.17.51-6.4.46-9.73-.01-.84.58-2.09.49-2.46-.27-1.17-2.28-.58-3.13-.87-.7-.23-.63-1.29-1.16-1.43-.62-.16-5.08-.43-6.15-.49,4.94-.47,10.95.62,15.75.03,1-.12.79-.65,1.24-1.03Z"/>
  <path class="cls-33" d="M144.32,93.11c.39-.96.47-1.75,1.87-1.93,1.94-.25,8.28,7.62,9.92,9.37,1.18,1.26,4.16,2.73,4.16,4.8s-11.04,11.51-12.68,14.26c-1.98,1.24-4.03.22-3.78-2.22.22-2.17,8.05-8.8,9.99-11.28-.23-.4-.39-.85-.07-1.18l-6.48-6.33c-2.09-1.63-3.07-3.46-2.94-5.47Z"/>
  <path class="cls-24" d="M66.88,118.58c-.71.03-1.45-.02-2.11-.33-1.45-.69-10.5-10.35-11.68-12.06-.43-.62-.75-1.33-.71-2.09.74-1.99,1.89-1.94,3.02-3.22,1.72-1.96,8.88-10.4,10.83-10.7,1.36-.21,2.16.88,2.17,2.17.03,3.29-8.5,8.61-9.88,12,.9,3.41,14.29,11.09,8.34,14.23Z"/>
  <path class="cls-31" d="M110.85,74.14c.26.8.56.68,1,0h4.5c.42.42-1,7.39-1.05,8.74-.1,2.93,2.31,6.06-2.95,5.75l1.5.99c-.11.39-.27.97-.58,1-1.34.13-10.09.14-10.58-.33-.17-.16-.26-.4-.33-.67.44-.38,1.24-.38,1.5-.86,1.45-2.66,2.2-10.34,3-13.62,1.49-1.28,1.85-1.14,4-1Z"/>
  <path class="cls-19" d="M96.86,120.08c.47-2.62.29-4.58.63-7.11.63-4.75,3.36-10.36,3.92-15.31.87.11,3.68-.73,3.44.69-2.79,12.12-7.18,23.99-9.49,36.22-1.22.13-2.35-.19-3.5-.5l-.86-.67c1.24-1.82,2.65-5.03,1.84-7.36l1.52-1.96c.86-1.05,1.34-2.21,1.42-3.48l1.08-.51Z"/>
  <path class="cls-8" d="M66.84,27.73c.38.27,3.76,7.37,4.03,8.44-.43-.18-1.25.59-1.43.47-.7-.46-2.18-5.32-3.55-5.95l1.49,7.49c-1.12,1.12-4.8-4.11-5.99-4.49-.11,1.4,3.02,4.9,2.98,5.75-.02.51-1.51,1.04-1.97.73-.38-.26-3.58-7.04-4.06-8.15,2.91-3.08,3.99,1.32,6.53,2.68.36-1.65-1.37-4.24-.94-5.65.25-.8,2.35-1.69,2.9-1.3Z"/>
  <path class="cls-8" d="M36.25,144.27c.57.47,4.46-2,5.27-1.87.39.06,2,2.48,1.72,2.86-.04.05-.81.14-1.22.51-.74.67-5.62,5-6.01,4.99-.09,0-1.23-1.15-1.24-1.24-.01-.72,4.88-3.76,5.48-4.74l-7.49,2.49c-1-1.02,3.98-5.51,3.99-6.99-.28-.3-7.32,6.67-6.49,2.75.13-.63,6.3-4.79,7.25-5.69,3.58,2.64-.11,4.2-1.25,6.93Z"/>
  <path class="cls-32" d="M63.38,104.1l13.49,14.23v12.98c0,.12.86.99,1.23,1.04,1.97-.88,13.02.25,13.71-.34.23-.2,1.28-5.74,1.05-5.94-.1-.08-1.34.07-2.5-.5.62-1.05,1.79-1.55,3.5-1.5.12-.43.29-.42.5,0l-2.5,9.99c-.92-.25-1.71-.82-2.79-.96-2.5-.31-11.64.66-12.75-.74-1.4-1.78.32-11.03-.71-13.77-4.37-4.44-8.83-9.03-12.75-13.76-.02-.51.45-.6.52-.73Z"/>
  <path class="cls-1" d="M141.83,154.03c-2.03,2.64-10.98,7-14.28,7.45-1.69.23-3.6-.19-5.2.04,6.47-2.89,14.45-6.03,19.99-10.49,2.3.64.88,1.96-.5,3Z"/>
  <path class="cls-8" d="M97.36,19.96c-.03-.21-.68-.69-.5-1.24,3.79-.98,3.17,3.37,5.49,4.99-.34-2.33-1.9-6.38,1.5-5.49-.57,1.39.84,9.16.5,9.49-.16.15-1.57.01-2-.25-1.02-.61-1.44-4.15-2.99-4.75-.44,2.45,1.43,6.37-2,5.49-.22-2.63.3-5.66,0-8.24Z"/>
  <path class="cls-8" d="M106.85,173.62c1.68,1.07,2.33,1.29,1.97.63l1.03-.63c.49-.04,1.01.05,1.5,0-.43,1.49,1.11,8.92.5,9.49-.08.08-1.54.08-1.89-.11-.78-.43-2-4.74-3.1-5.38-.16.89.31,5.91-.26,5.99-1.09.15-1.55-.16-1.75-1.25-.26-1.44-.43-8.32,1-8.74.25-.07.68.03,1,0Z"/>
  <path class="cls-8" d="M144.83,34.69c1.05-.35,2.23-4.78,2.51-4.99.14-.1,2.29.24,1.93,1.19-.32.82-4.26,7.69-4.7,7.8-2.02.5-1.03-5.82-1.25-6.99-1.2.6-1.5,3.65-2.47,4.26-.77.49-1.99.03-2.01-.52,0-.47,4.37-7.75,5.22-7.76,2.43-.02.75,5.56.76,7.01Z"/>
  <path class="cls-8" d="M44.38,58.15c-.63.48-5.67-1.43-6.98-.98.26,1.01,4.3,2.81,4.44,3.04.42.75-.27,2.14-1.18,1.94-.6-.14-6.16-4.96-7.25-5.74,1.68-2.44,4.14-.54,6.49-.75-1.05-1.89-4.83-1.83-2.75-4.48,1.63,1.67,6.06,3.61,7.3,5.23.37.49.13,1.6-.07,1.75Z"/>
  <path class="cls-8" d="M57.4,163.37c.65-.53,4.04-5.85,4.01-2.24,0,.44-4.39,7.24-4.82,7.27-.09,0-1.64-.47-1.69-.54-.2-.26,1.27-5.41,1-6.48l-3.74,4.48c-.26-.35-1.14-.91-1.15-1.23-.02-.47,4.77-7.27,5.64-7.27,2.48,0,.29,4.61.76,6.01Z"/>
  <path class="cls-8" d="M55.45,45.1c-.42-.24-4.11-6.27-4.97-7.18,1.69-1.53,5.45-5.33,7.44-2.52.5.7.36,1.64.75,2.25.48.74,3.46,2.05,3.22,3.27-.49,2.38-2.77-2.01-4.98-.99-3.39,1.57.51,3.54.47,4.5-.02.48-1.31,1.03-1.92.68ZM53.9,40.18c.14.1,2.58-1.67,2.75-1.98,1.75-3.22-5.92-2.08-2.75,1.98Z"/>
  <path class="cls-8" d="M67.23,163.37c.6.6,1.82,3.56.38,3.85-1.63.33-.62-2.78-2.5-3.02-2.29-.3-4.27,2.54-3.65,4.67.56,1.93,3.48,1.48,3.4.61-.01-.17-3.23-1.74-.71-2.24.59-.12,1.88,1,2.68,1.03.42.58-.93,3.22-1.44,3.72-1.86,1.81-1.94.02-2.18-.08-1.35-.58-2.03-.11-3.04-1.73-2.82-4.51,3.47-10.4,7.06-6.81Z"/>
  <path class="cls-8" d="M135.36,28.17c.09.11,2.58.97,2.73.96.47-.03,2.4-5.77,3.22-2.64.43,1.63-3.06,6.63-2.98,8.7-4.06.25-.23-4.14-.5-4.49-.11-.14-2.84-.76-3.25-1.5-.91,1.17-1.61,5.36-3.21,3.44-.74-.89,3.24-7.3,2.97-8.94,3.98-.34.07,3.37,1.02,4.47Z"/>
  <path class="cls-8" d="M172.8,55.66c-2.49-.83.45-5.07-3.51-4.31s-4.49,5.89-1.24,5.3c1.56-.28-.24-1.66-.23-1.75.12-1.6,3,.02,3.01,1.5,0,.97-3.58,3.55-4.01,3.24-.15-1.53-1.85-2.11-2.28-3.46-2.51-7.76,11.55-9.76,8.26-.53Z"/>
  <path class="cls-8" d="M47.78,40.27c3.68-.89,8.92,6.3,4.25,8.79-5.15,2.74-10.53-7.26-4.25-8.79ZM48.07,46.5c3.17,3.19,5.5-.48,2.53-3.28s-5.26.52-2.53,3.28Z"/>
  <path class="cls-8" d="M95.9,174.27c.17-1.11.94-1.5,2-1.25v4c1.14-.22,3.1.63,3.65-.61.62-1.4-.31-4.7,1.87-3.17,1.07.75.02,2.48-.02,3.52-.07,2.21,1,6.72-2,6.23v-4.49c-.72.13-3.22-.22-3.48.03-.6.58.44,5.01-2.02,3.97.27-2.56-.38-5.78,0-8.24Z"/>
  <path class="cls-8" d="M176.1,135.06c.12.19-.07,1.07,0,1.49-2.59-.29-3.62.36-2.78,3.02,1.12,3.54,8.36,2.41,4.52-1.02-2.35,3.32-2.15-1.57.08-1.94.23-.04,3.63,2.01,3.69,2.21.3,1.01-1.85,2.35-2,3.49-3.63,4.29-11.83-2.38-7.04-6.53.71-.61,3.03-1.49,3.53-.71Z"/>
  <path class="cls-8" d="M152.57,32.93c6.22.2,2.36,10.91-3.28,9.03-4.12-1.38-1.96-9.19,3.28-9.03ZM152.18,34.76c-1.63.26-3.58,2.77-3.14,4.44,1.35,5.12,7.98-5.2,3.14-4.44Z"/>
  <path class="cls-8" d="M163.19,42.76c1.66-.27,3.61,1.04,4.25,2.56,1.63,3.88-6.45,9.6-8.75,4.22-1.14-2.68,1.85-6.33,4.5-6.77ZM163.17,44.77c-1.81.54-4.26,4.81-1.53,5.32,3.18.6,6.68-6.85,1.53-5.32Z"/>
  <path class="cls-8" d="M152.45,157.43c3.84-3.83,10.02,4.05,6.63,7.37-4.11,4.02-10.2-3.82-6.63-7.37ZM154.12,158.33c-2.8.93,1.54,7.7,3.69,5.22,1.66-1.91-1.72-5.87-3.69-5.22Z"/>
  <path class="cls-8" d="M91.23,19.29c5.27-1.08,6.37,8.35,2.27,9.29-6.24,1.43-7.21-8.28-2.27-9.29ZM90.44,21.28c-.7,1.1-.15,7.04,2.62,5.87,1.45-.48,1.07-5.97-.53-6.4-.42-.11-1.94.28-2.09.53Z"/>
  <path class="cls-8" d="M127.58,170.45c1.14-.15,1.69,0,2.52.73.46.41,4.81,7.46,4.48,7.75-2.15.73-2.15-1.51-3.19-1.49-3.67.05-1.89,2.57-2.31,3-.48-.08-1.87.12-1.99,0-.36-.35-.04-9.74.5-9.99ZM130.57,176.44c.29-.28-.69-2.97-1.49-2.99.16,1.69-.85,3.5,1.49,2.99Z"/>
  <path class="cls-8" d="M78.87,32.68c-1.21,1.44-2.97-.99-3.65-.92-.13.01-2.26.84-2.33.95-.11.16,1.6,2.89-1.51,2.47.51-1.62-1.27-8.71-.79-9.49.33-.52,1.65-1.12,2.28-.79.43.23,6.31,7.4,6,7.77ZM74.36,30.68c.63-.76-1.14-2.76-1.98-2.98l.5,3.5c.37-.34,1.43-.45,1.48-.51Z"/>
  <path class="cls-8" d="M49.42,163.61c-.1.08-1.92-.42-1.98-.5-.53-.71,1.66-1.74.27-2.99-2.48-2.23-3.34,1.55-4.26-1.25,1.23-.96,9.44-8.01,9.39-3.6,0,.45-3.05,8.07-3.42,8.33ZM49.43,159.12l1-2.99-2.99,1.51c-.17.25,1.4,1.92,1.99,1.49Z"/>
  <path class="cls-8" d="M124.34,20.21v1.49s-4.5-.5-4.5-.5l-.51,2.5c1.19.04,4.88.57,3.5,2-.69.72-4.81-2.16-4,2,1.24-.04,5.45.49,4,2-.27.29-5.73-.75-5.94-1.05-.58-.84,1.54-7.84,1.45-9.44l6,1Z"/>
  <path class="cls-8" d="M186.4,131.26l-2.51,5.99-8.48-4.5c-.2-.27,2.64-5.35,3.25-5.48,2.91.55-1.46,3.11-.55,4.5,1.76,2.68,2.7-1.77,4.03-1.51,1.69.33-.93,2.3-.71,3.19.09.37,1.57,1.29,1.72,1.28.7-.05,1.5-3.92,3.24-3.47Z"/>
  <path class="cls-8" d="M26.41,133.57c.27-.36,8.32-2.51,8.77-2.49.81.02,1.55.99,1.54,1.74s-6.08,7.21-6.57,7.23c-1.88.06,1.58-4.05-1.22-5.22-.15-.06-3.71.32-2.53-1.26ZM34.4,133.06l-4,1,1.01,1.99,2.99-2.99Z"/>
  <path class="cls-8" d="M122.14,172.05c2.74.93,1.99,4.47.49,3.25-.45-.37-.36-1.32-1.43-1.52-2.95-.55-2.39,6.58.68,6.29,1.56-.15.95-1.87,1.54-2.07,2.61-.87,1.82,1.96.48,3.04-3.64,2.95-7.55-1.8-6.67-5.64.24-1.03,1.35-1.73,1.41-2.86,1.13-.21,2.6-.29,3.5-.5Z"/>
  <path class="cls-8" d="M87.37,171.18c.28.29-.19,1.94-.75,1.98-1.27.09-4.25-3.26-4.25,1.51.96-.34,4.23.66,3,2-.31.33-3.48-1.37-3.99.26-.78,2.5,5.91,1.68,3.99,3.74-.2.22-5.53-1.12-5.78-1.47-.88-1.21,1.78-7.18,1.81-9,.84.15,5.77.77,5.98.98Z"/>
  <path class="cls-8" d="M150.32,163.55c-.78.95-2.67-.86-3.69-.46-2.84.88,2.35,8.45,3.89,4.97.35-.8-.61-1.99,1.79-2.51.72,9.82-11.44,3.35-7.89-2.65,2.14-3.63,6.94-.61,5.9.65Z"/>
  <path class="cls-8" d="M170.88,146.04c.13-2.09,3.14-3.36,2.43-.83-.33,1.18-2.84,1.56-.11,3.3,1.53.28,2.07-4.28,4.18-2.22l-4.24,4.74-6.68-5.55c-.55-.95,2.05-3.59,2.77-4.31,1.2-1.2,2.43-.53,1.66.63-1.05,1.59-4.06,2.88-.01,4.24Z"/>
  <path class="cls-8" d="M132.33,26.2c-2.44.53-1.81-2.73-2.76-2.99-2.07-.57-4.46,4.4-2.53,6.04,1.44,1.22,2.53-1.02,4.29-.54-2.1,5.03-7.67,2.27-6.97-2.71.79-5.6,8.65-6.08,7.97.21Z"/>
  <path class="cls-8" d="M43.86,147c1.41-.25,6.3,5.79,2.04,7.58-2.83,1.19-3.87-2.29-5.03-2.09-.74.13-1.59,2.16-2.56,1.96-.54-.11-.87-.82-.52-1.5.2-.39,5.65-5.88,6.07-5.95ZM45.5,152.91c1.63-1.18-1.46-5.56-3.43-1.71.56.89,2.44,2.42,3.43,1.71Z"/>
  <path class="cls-8" d="M94.86,176.87c-1.29,1.3-2.26-2.33-2.77-2.49-3-.89-4.12,7.77-.53,6.42.71-.27.66-1.38,1.08-1.46,2.84-.55,1.6,4.21-3.32,2.8-4.14-1.18-1.62-12.45,4.24-8.72.85.54,1.81,2.92,1.3,3.44Z"/>
  <path class="cls-14" d="M152.32,144.55c-2.87,3.3-6.6,7.7-10.49,9.49.89-1.16.86-1.52.5-3,1.69-1.36,5.51-5.3,6.99-6.99l3,.5Z"/>
  <path class="cls-8" d="M46.39,48.67c.96,1.05-3.12,1.91-1.28,4.03.25.29,3.72,2.38,1.02,2.96-.52.11-6.32-5.3-7.12-6.23.08-1.24,4.85-5.91,4.86-3.5,0,.59-2.96,2.7-2.26,3.76,1.6,2.43,2.56-.76,3.27-1.3.15-.12,1.45.23,1.5.29Z"/>
  <path class="cls-8" d="M174.8,59.65c.62.46,4.71-1.04,4.49,1.5-1.76.18-4.5.16-6.12.63-.98.29-2.09,1.71-2.71,1.8-.56.08-1.65-1.01-1.65-1.18,0-.29,2.58-1.56,3.26-2.23.85-.84,2.87-5,3.48-5,1.76-.02-.09,3.87-.75,4.48Z"/>
  <path class="cls-8" d="M80.92,23.25c-.79.87,2.06,6.1,1.97,7.61-.02.27-1.2.83-1.27.83-.92-.01-2.32-7.16-2.75-7.48-.25-.19-2.17.84-2.49.5-1.8-1.87,5.22-2.9,5.99-3.5,1.12,2.52-1.02,1.57-1.45,2.05Z"/>
  <path class="cls-8" d="M116.84,19.22c-.24,2.17-1.92,1.16-2.43,1.55-.94.72-.06,6.5-1.04,7.21-.37.27-1.41.33-1.52.22-.63-.62.88-7.63.5-7.99-.48-.46-2.69,1.21-2-2l6.49,1.01Z"/>
  <path class="cls-8" d="M80.12,171.18c-.23.25-1.98-.82-2.46-.47-.58.42-2.15,8.85-4.03,6.96.07-2.72,1.4-5.29,2.49-7.74-.78.01-2.93-1.29-1.99-2.24.36-.36,7.61,1.72,5.99,3.49Z"/>
  <path class="cls-8" d="M137.91,175.05c.85.74,3.62-1.35,3.96-.97.06.07.09,1.75-.06,1.93-.17.2-4.19,1.29-4.92,1.56-.04-1.43-3.5-8.38-3-8.99.06-.07,1.32-.6,1.74,0,.74,1.07,2.03,6.23,2.29,6.46Z"/>
  <path class="cls-8" d="M163.14,147.39c.39,0,5.11,5.47,5.5,5.47.28,0,2.22-2.48,2.5-2.48.09,0,1.24,1.15,1.24,1.24,0,.28-3.69,3.83-4.18,3.72-.53-1.31-6.3-6.26-6.29-6.72,0-.09,1.15-1.24,1.24-1.24Z"/>
  <path class="cls-8" d="M157.76,46.24c.05.07-.31,1.68-1.14,1.38-.74-.27-3.91-2.79-3.76-3.62.09-.5,5.65-6.92,6.2-6.81.89.17.71,1.14.38,1.86-.57,1.2-3.91,4.08-4.07,4.95-.23,1.27,2.25,2.01,2.4,2.24Z"/>
  <path class="cls-8" d="M167,156.05c.91.95-2.78,4.21-3.75,4.4-.73-1.03-6.7-6.93-5.73-7.89,1.41-1.41,5.46,5.47,6.24,5.47.25,0,2.14-2.43,3.24-1.97Z"/>
  <path class="cls-8" d="M25.94,128.6c-.56.79,1.52,3.2.94,3.92-.05.06-1.4.58-1.46.54-.22-.17-2.04-4.62-1.8-5,.22-.35,6.64-3.61,7.26-3.77.9-.22.91-.23,1.52.54.33,1.55-6.07,3.23-6.46,3.78Z"/>
  <path class="cls-13" d="M66.88,118.58c-1.99,1.05-2.79-.07-4.26-1.48-3.31-3.2-6.35-7.46-9.96-10.53-.83-1.25-.74-1.21-.27-2.47.75.58.92,1.55,1.5,2.25,1.45,1.77,9.01,9.93,10.45,11.02.89.66,1.76.57,2.54,1.21Z"/>
  <path class="cls-29" d="M115.2,172.95c-.08,3.05,1.9,7.41.24,9.98-2.32.49-.68-8.66-2.74-9.49.49-.05,1.57-.38,2.5-.5Z"/>
  <path class="cls-8" d="M85.81,20.76c.33.27,2.06,7.8,2.03,8.23-.07,1.04-1.53,1.84-1.97.89-.91-1.97-.76-6.64-2.01-8.92-.01-.43,1.75-.36,1.95-.2Z"/>
  <path class="cls-8" d="M31.91,58.66c1.04.87,8.47,4.74,8.48,5.24,0,.17-1.09,1.26-1.65,1.18-.43-.06-7.18-4.31-7.27-4.74-.11-.5.54-1.11.44-1.69Z"/>
  <path class="cls-3" d="M111.85,74.14c-.22,4.9-2.86,10.17-3.75,14.98-1.23.21-.74-.91-.62-1.62.72-4.34,2.99-8.86,3.37-13.36l1-1c0,.33.01.67,0,1Z"/>
  <path class="cls-25" d="M153.82,106.1c-1.46-2.56-9.63-8.95-10.01-11.3-.17-1.05.29-1.13.51-1.68-.62,3.05,10.44,11.09,10.48,12.24-.16.41-.83.54-.99.75Z"/>
  <path class="cls-16" d="M75.87,91.11c.54-3.33-.95-10.82.5-13.48.83.52.5,1.9.51,2.74.02,2.1.37,8.87-.26,10.24-.15.33-.66.39-.74.5Z"/>
  <path class="cls-7" d="M134.33,130.06c-.85-1.43-.83-4.66,0-5.99-.06,1.99.02,4,0,5.99Z"/>
  <path class="cls-7" d="M133.83,136.56c.25-1.89-.6-4.47.5-5.99-.03,1.69.44,4.9-.5,5.99Z"/>
  <path class="cls-17" d="M91.36,91.11c.53,1.49-.5,3.81-.5,4.74v23.47c0,.2.84,3.76.95,3.93.16.24,1.77.8,2.05.81-.64,1.32-2.14,1.59-3.5,1.5-1.23-.6-1.84-1.35-2.02-2.72-1.16-8.74.94-19.99,0-29.01.36-2.8,1.79-2.02,3.02-2.72Z"/>
  <path class="cls-2" d="M150.32,190.49l-1.25,2.98c-1.88-1.09-.94-3.2,1.25-2.98Z"/>
  <path class="cls-18" d="M123.34,95.61c-.34.23-.55,1.04-1.5,1.5-1.61.28-3.5.53-5,0,.02-.5-.02-1,0-1.5h6.5Z"/>
  <path class="cls-31" d="M124.84,89.62c-2.08-.49-7.88.01-10.49,0,3.04-.84,7.45-.84,10.49,0Z"/>
  <path class="cls-4" d="M121.84,97.11c-1.75.83-3.1.46-5,.5,0-.17,0-.33,0-.5h5Z"/>
  <path class="cls-6" d="M100.86,91.11c-.46,1.38.78,4.49,2.25,4.49h7.74v26.22c0,.86,1.98,2.37,3,2.25-.23.14-.44.83-1.1,1.12-1.98.86-3.82.52-4.79-1.47l-.1-26.11c-.63-.09-1.42.12-2,0-3.18-.65-8.96.63-7.39-4.64.44-1.49,1.83-1.4,2.39-1.85Z"/>
  <text class="cls-11" transform="translate(227.76 90.69)"><tspan x="0" y="0">INFORM</tspan><tspan class="cls-23" x="138.37" y="0">A</tspan><tspan x="160.57" y="0">TION TECHNO</tspan><tspan class="cls-26" x="386.88" y="0">L</tspan><tspan x="402.64" y="0">OGY</tspan></text>
  <text class="cls-12" transform="translate(227.71 134.99)"><tspan x="0" y="0">LAM</tspan><tspan class="cls-10" x="67.75" y="0">P</tspan><tspan x="86.86" y="0">ANG TECHNICAL COLLEGE</tspan></text>
</svg>